<?xml version="1.0" standalone="no"?><!DOCTYPE svg PUBLIC "-//W3C//DTD SVG 1.1//EN" "http://www.w3.org/Graphics/SVG/1.1/DTD/svg11.dtd"><svg t="1608219493592" class="icon" viewBox="0 0 1024 1024" version="1.1" xmlns="http://www.w3.org/2000/svg" p-id="3214" xmlns:xlink="http://www.w3.org/1999/xlink" width="200" height="200"><defs><style type="text/css"></style></defs><path d="M512 0a512 512 0 1 1 0 1024A512 512 0 0 1 512 0zM260.48 711.616v0.064c-64.512-1.28-106.24 27.968-106.24 52.48 0 130.752 661.696 124.48 661.696-9.088 0-22.208-26.112-32.704-35.456-37.76 54.016 127.68-540.48 117.76-540.48 42.24 0-17.088 43.84-34.176 84.48-26.24l-34.24-19.456a212.992 212.992 0 0 0-29.76-2.24z m524.416-193.28c-21.568-1.024-45.888 6.976-67.456 22.848 42.56-9.408 78.848 17.28 78.848 48 0 68.864-98.304 133.696-98.304 133.696s152-16.96 152-130.176c0-46.848-29.248-72.64-65.088-74.432zM365.44 624.64c-28.992 0-72 22.528-72 44.544 0 44.224 218.368 78.272 379.52 13.696l-56.064-34.24c-109.312 35.712-311.168 23.808-251.52-24z m37.504-105.344h-9.408c-3.584 0-7.68 0.064-12.096 0.256v-0.064c-53.056 1.792-158.848 10.56-158.848 51.392 0 56.96 246.528 61.312 422.912 26.304 0 0 48-33.408 60.544-45.696-115.584 24-379.52 27.712-379.52 6.784 0-16.512 63.552-33.472 80.512-37.76l4.096-0.96s-3.008-0.192-8.192-0.256z m331.648-310.72s-205.568 13.056-216 147.456c-4.736 59.84 54.272 91.328 56 134.912 1.472 35.52-35.456 65.088-35.456 65.088s66.176-11.968 86.912-66.24c22.784-60.288-44.544-101.504-37.76-149.76 6.592-46.08 146.304-131.456 146.304-131.456zM579.136 40.576c28.032 66.048-29.248 118.08-90.56 168.128l-20.48 16.64C423.744 261.312 382.08 296.96 373.376 336.64c-20.032 92.608 139.264 201.152 139.456 201.152-24.32-38.208-41.984-70.592-66.304-130.24C405.44 306.56 697.28 215.616 579.2 40.576z" p-id="3215"></path></svg>